<svg width="225" height="186" viewBox="0 0 225 186" fill="none" xmlns="http://www.w3.org/2000/svg">
<g filter="url(#filter0_d_4_21)">
<mask id="mask0_4_21" style="mask-type:luminance" maskUnits="userSpaceOnUse" x="34" y="0" width="146" height="130">
<path d="M180 0H34V130H180V0Z" fill="white"/>
</mask>
<g mask="url(#mask0_4_21)">
<path d="M105.534 62.4606V23.9174L76.4227 -0.00219727V33.5999C43.6376 42.7121 49.8844 51.5165 54.9131 55.2816L34 65.3238L68.0885 81.7034L102.622 65.3238L68.0885 48.9568L55.6103 54.9501C50.2554 47.7149 66.5611 39.0636 76.4227 34.6719V39.027L105.534 62.4606Z" fill="#253569"/>
<path d="M139.361 90.9749L110.249 67.5386V106.08L122.979 116.541C120.728 126.422 108.008 119.002 98.8393 112.085L106.154 106.08V67.5386L77.0427 90.9749V130L97.4659 113.221C120.161 136.489 122.891 121.746 123.191 116.708L139.362 130L139.361 90.9749Z" fill="#5366A7"/>
<path d="M149.588 50.9104C157.328 14.7977 143.478 20.5156 138.739 23.3549V0L109.626 23.9182V62.46L138.739 39.0194V23.6639C149.011 19.7836 149.266 38.8859 148.539 50.4116L145.475 48.9576L111.386 65.3259L145.475 81.7055L180.006 65.3259L149.588 50.9104Z" fill="#253569"/>
</g>
<path d="M50.4248 152.384C48.7288 152.384 47.2888 152.053 46.1048 151.392C44.9208 150.731 43.9661 149.845 43.2408 148.736C42.5154 147.616 41.9821 146.368 41.6408 144.992C41.3101 143.616 41.1448 142.219 41.1448 140.8C41.1448 139.392 41.3154 138.005 41.6568 136.64C42.0088 135.264 42.5528 134.016 43.2888 132.896C44.0248 131.776 44.9794 130.885 46.1528 130.224C47.3368 129.552 48.7608 129.216 50.4248 129.216C51.8008 129.216 52.9634 129.413 53.9128 129.808C54.8728 130.203 55.6514 130.709 56.2488 131.328C56.8568 131.936 57.3261 132.576 57.6568 133.248L55.1608 134.528C54.8088 134.005 54.4248 133.541 54.0088 133.136C53.5928 132.72 53.0968 132.395 52.5208 132.16C51.9448 131.925 51.2461 131.808 50.4248 131.808C49.2301 131.808 48.2221 132.08 47.4008 132.624C46.5794 133.168 45.9181 133.883 45.4168 134.768C44.9261 135.653 44.5688 136.624 44.3448 137.68C44.1314 138.736 44.0248 139.776 44.0248 140.8C44.0248 141.909 44.1474 142.997 44.3928 144.064C44.6381 145.131 45.0221 146.096 45.5448 146.96C46.0674 147.813 46.7288 148.496 47.5288 149.008C48.3394 149.509 49.3048 149.76 50.4248 149.76C51.6621 149.76 52.6541 149.499 53.4008 148.976C54.1474 148.443 54.7768 147.755 55.2888 146.912L57.8488 147.872C57.4648 148.704 56.9421 149.461 56.2808 150.144C55.6194 150.827 54.8034 151.371 53.8328 151.776C52.8728 152.181 51.7368 152.384 50.4248 152.384ZM62.3435 152V130.176L65.1275 128.896V137.344C65.6288 136.651 66.2315 136.133 66.9355 135.792C67.6502 135.44 68.4555 135.264 69.3515 135.264C70.7702 135.264 71.9062 135.557 72.7595 136.144C73.6235 136.731 74.2475 137.573 74.6315 138.672C75.0155 139.76 75.2075 141.067 75.2075 142.592V152H72.4235V142.112C72.4235 140.832 72.1355 139.797 71.5595 139.008C70.9942 138.219 70.1088 137.824 68.9035 137.824C67.6555 137.824 66.7115 138.181 66.0715 138.896C65.4422 139.6 65.1275 140.651 65.1275 142.048V152H62.3435ZM87.1475 152.384C85.6542 152.384 84.3635 152.016 83.2755 151.28C82.1875 150.544 81.3502 149.531 80.7635 148.24C80.1768 146.949 79.8835 145.472 79.8835 143.808C79.8835 142.005 80.1875 140.469 80.7955 139.2C81.4035 137.92 82.2515 136.944 83.3395 136.272C84.4275 135.6 85.6968 135.264 87.1475 135.264C88.3742 135.264 89.4995 135.541 90.5235 136.096C91.5475 136.64 92.3635 137.488 92.9715 138.64C93.5902 139.781 93.8995 141.248 93.8995 143.04C93.8995 143.296 93.8888 143.595 93.8675 143.936C93.8568 144.267 93.8355 144.608 93.8035 144.96H82.7315C82.8382 145.952 83.0835 146.821 83.4675 147.568C83.8515 148.315 84.3582 148.901 84.9875 149.328C85.6168 149.744 86.3582 149.952 87.2115 149.952C87.9048 149.952 88.5448 149.829 89.1315 149.584C89.7288 149.339 90.2835 148.96 90.7955 148.448L92.4275 150.272C91.8195 150.88 91.0622 151.387 90.1555 151.792C89.2595 152.187 88.2568 152.384 87.1475 152.384ZM82.6995 142.528H91.0835C91.0835 141.6 90.9288 140.773 90.6195 140.048C90.3208 139.312 89.8782 138.736 89.2915 138.32C88.7048 137.904 87.9902 137.696 87.1475 137.696C85.9635 137.696 84.9448 138.08 84.0915 138.848C83.2488 139.616 82.7848 140.843 82.6995 142.528ZM104.449 152.384C103.041 152.384 101.83 152.043 100.817 151.36C99.8034 150.667 99.0248 149.685 98.4808 148.416C97.9368 147.136 97.6648 145.611 97.6648 143.84C97.6648 142.059 97.9421 140.528 98.4968 139.248C99.0514 137.968 99.8408 136.987 100.865 136.304C101.899 135.611 103.137 135.264 104.577 135.264C105.985 135.264 107.179 135.589 108.161 136.24C109.142 136.891 109.857 137.835 110.305 139.072L107.681 140.032C107.414 139.328 107.014 138.789 106.481 138.416C105.958 138.043 105.334 137.856 104.609 137.856C103.286 137.856 102.273 138.368 101.569 139.392C100.865 140.416 100.513 141.899 100.513 143.84C100.513 145.739 100.859 147.2 101.553 148.224C102.246 149.248 103.233 149.76 104.513 149.76C105.334 149.76 106.033 149.547 106.609 149.12C107.195 148.693 107.606 148.096 107.841 147.328L110.433 148.192C110.038 149.536 109.318 150.571 108.273 151.296C107.227 152.021 105.953 152.384 104.449 152.384ZM114.625 152V130.208L117.409 128.896V141.28L122.721 135.648H126.049L121.761 140.096L127.905 152H124.865L119.809 142.112L117.409 144.608V152H114.625ZM130.812 143.808V141.12H138.3V143.808H130.812ZM149.385 152.384C147.37 152.384 145.871 151.787 144.89 150.592C143.919 149.397 143.434 147.563 143.434 145.088V135.648H146.218V145.504C146.218 146.891 146.522 147.952 147.13 148.688C147.738 149.424 148.607 149.792 149.738 149.792C150.986 149.792 151.924 149.435 152.554 148.72C153.194 148.005 153.514 146.955 153.514 145.568V135.648H156.298V152H153.514V150.432C152.991 151.104 152.399 151.6 151.738 151.92C151.087 152.229 150.303 152.384 149.385 152.384ZM161.844 158.496V135.648H164.628V137.024C165.801 135.851 167.198 135.264 168.82 135.264C170.206 135.264 171.401 135.611 172.404 136.304C173.417 136.997 174.196 137.984 174.74 139.264C175.294 140.544 175.572 142.059 175.572 143.808C175.572 145.557 175.294 147.077 174.74 148.368C174.185 149.648 173.401 150.64 172.388 151.344C171.385 152.037 170.196 152.384 168.82 152.384C167.956 152.384 167.177 152.229 166.484 151.92C165.79 151.6 165.172 151.115 164.628 150.464V157.184L161.844 158.496ZM168.468 149.792C169.844 149.792 170.894 149.275 171.62 148.24C172.356 147.205 172.724 145.728 172.724 143.808C172.724 141.963 172.34 140.507 171.572 139.44C170.804 138.363 169.769 137.824 168.468 137.824C167.636 137.824 166.889 138.016 166.228 138.4C165.566 138.784 165.033 139.328 164.628 140.032V147.584C165.193 148.32 165.796 148.875 166.436 149.248C167.076 149.611 167.753 149.792 168.468 149.792ZM181.217 145.824L180.289 136.224V129.216H183.105V136.224L182.145 145.824H181.217ZM181.665 152.416C181.025 152.416 180.497 152.197 180.081 151.76C179.665 151.323 179.457 150.816 179.457 150.24C179.457 149.664 179.665 149.152 180.081 148.704C180.497 148.256 181.025 148.032 181.665 148.032C182.295 148.032 182.817 148.256 183.233 148.704C183.66 149.152 183.873 149.664 183.873 150.24C183.873 150.816 183.66 151.323 183.233 151.76C182.817 152.197 182.295 152.416 181.665 152.416Z" fill="#5366A7"/>
</g>
<defs>
<filter id="filter0_d_4_21" x="-4" y="0" width="233" height="194" filterUnits="userSpaceOnUse" color-interpolation-filters="sRGB">
<feFlood flood-opacity="0" result="BackgroundImageFix"/>
<feColorMatrix in="SourceAlpha" type="matrix" values="0 0 0 0 0 0 0 0 0 0 0 0 0 0 0 0 0 0 127 0" result="hardAlpha"/>
<feOffset dy="4"/>
<feGaussianBlur stdDeviation="2"/>
<feComposite in2="hardAlpha" operator="out"/>
<feColorMatrix type="matrix" values="0 0 0 0 0 0 0 0 0 0 0 0 0 0 0 0 0 0 0.25 0"/>
<feBlend mode="normal" in2="BackgroundImageFix" result="effect1_dropShadow_4_21"/>
<feBlend mode="normal" in="SourceGraphic" in2="effect1_dropShadow_4_21" result="shape"/>
</filter>
</defs>
</svg>
